<svg width="239" height="43" viewBox="0 0 239 43" fill="none" xmlns="http://www.w3.org/2000/svg">
<path d="M67.3147 0.277802H42.8916L41.9867 0.954505V22.6813H48.7476V14.5338L49.393 13.9556H67.3156C71.8409 13.9556 73.9624 12.738 73.9624 9.61404V4.62542C73.9616 1.49622 71.8409 0.277802 67.3147 0.277802ZM67.3147 8.31027C67.3147 9.78212 66.341 10.0878 64.2195 10.0878H49.467L48.7468 9.3876V4.73341L49.3921 4.14293H64.2195C66.341 4.14293 67.3147 4.44514 67.3147 5.92396V8.31027Z" fill="url(#paint0_linear)"/>
<path d="M86.2912 4.38765L92.1089 12.9113L91.7866 13.737H78.9206L75.6364 17.7771H94.7878L96.1151 18.5854L99.0884 22.6865H106.826L89.8663 -3.05176e-05" fill="url(#paint1_linear)"/>
<path d="M163.225 18.2735V12.2433L163.921 11.6424H176.865V7.80249H156.35V22.6856H186.611V18.864H163.952" fill="url(#paint2_linear)"/>
<path d="M186.931 0.277802H156.35V4.50001H186.931V0.277802Z" fill="url(#paint3_linear)"/>
<path d="M122.243 4.27619H146.879C146.499 1.1435 144.556 0.274323 139.624 0.274323H121.98C116.416 0.274323 114.641 1.36036 114.641 5.57124V17.3852C114.641 21.6005 116.416 22.6865 121.98 22.6865H139.624C144.628 22.6865 146.544 21.7468 146.674 18.4974H122.243L121.518 17.8155V4.73255" fill="url(#paint4_linear)"/>
<path d="M25.5464 9.00787H7.6238L7.09602 8.42697V4.59319L7.62119 4.18734H31.7822L32.1123 3.38C31.2892 1.2628 29.1581 0.275177 25.2007 0.275177H8.41721C2.8564 0.275177 1.07886 1.36121 1.07886 5.5721V8.04899C1.07886 12.2651 2.8564 13.3494 8.41721 13.3494H26.2998L26.8615 13.8423V17.8503L26.4034 18.4756H5.94815V18.4564H0.590271C0.590271 18.4564 -0.0228553 18.7639 0.000659495 18.9076C0.457891 21.853 2.46448 22.6874 7.26847 22.6874H25.5464C31.1063 22.6874 32.937 21.6013 32.937 17.3861V14.3004C32.937 10.0922 31.1063 9.00787 25.5464 9.00787Z" fill="url(#paint5_linear)"/>
<path d="M226.667 22.5018L236.727 22.5018L237.273 21.4628L226.101 13.3188C223.984 14.5442 221.681 15.7862 219.177 17.0115" fill="url(#paint6_linear)"/>
<path d="M217.653 7.16069L207.833 1.08025e-05L197.65 1.11262e-05L197.229 0.94844L211.891 11.6808C213.839 10.2516 215.763 8.74228 217.653 7.16069Z" fill="url(#paint7_linear)"/>
<path d="M228.164 0.0166095L237.266 0.0166092L238.035 1.22108C231.846 7.19645 204.166 32.811 144 35.5553C144 35.5553 194.501 33.8518 228.164 0.0166095Z" fill="#A7A9AC"/>
<path d="M36.037 34.1699C36.763 34.1699 37.3387 34.3826 37.764 34.8079C38.1967 35.2259 38.413 35.8383 38.413 36.6449V39.9999H37.632V36.7219C37.632 36.1206 37.4817 35.6623 37.181 35.3469C36.8803 35.0316 36.4513 34.8739 35.894 34.8739C35.2707 34.8739 34.7757 35.0609 34.409 35.4349C34.0497 35.8016 33.87 36.3113 33.87 36.9639V39.9999H33.089V34.2139H33.837V35.2809C34.0497 34.9289 34.343 34.6576 34.717 34.4669C35.0983 34.2689 35.5383 34.1699 36.037 34.1699ZM42.9198 40.0549C42.3625 40.0549 41.8602 39.9303 41.4128 39.6809C40.9655 39.4243 40.6135 39.0723 40.3568 38.6249C40.1002 38.1776 39.9718 37.6716 39.9718 37.1069C39.9718 36.5423 40.1002 36.0363 40.3568 35.5889C40.6135 35.1416 40.9655 34.7933 41.4128 34.5439C41.8602 34.2946 42.3625 34.1699 42.9198 34.1699C43.4772 34.1699 43.9795 34.2946 44.4268 34.5439C44.8742 34.7933 45.2225 35.1416 45.4718 35.5889C45.7285 36.0363 45.8568 36.5423 45.8568 37.1069C45.8568 37.6716 45.7285 38.1776 45.4718 38.6249C45.2225 39.0723 44.8742 39.4243 44.4268 39.6809C43.9795 39.9303 43.4772 40.0549 42.9198 40.0549ZM42.9198 39.3619C43.3305 39.3619 43.6972 39.2703 44.0198 39.0869C44.3498 38.8963 44.6065 38.6286 44.7898 38.2839C44.9732 37.9393 45.0648 37.5469 45.0648 37.1069C45.0648 36.6669 44.9732 36.2746 44.7898 35.9299C44.6065 35.5853 44.3498 35.3213 44.0198 35.1379C43.6972 34.9473 43.3305 34.8519 42.9198 34.8519C42.5092 34.8519 42.1388 34.9473 41.8088 35.1379C41.4862 35.3213 41.2295 35.5853 41.0388 35.9299C40.8555 36.2746 40.7638 36.6669 40.7638 37.1069C40.7638 37.5469 40.8555 37.9393 41.0388 38.2839C41.2295 38.6286 41.4862 38.8963 41.8088 39.0869C42.1388 39.2703 42.5092 39.3619 42.9198 39.3619ZM50.3993 34.1699C51.1253 34.1699 51.701 34.3826 52.1263 34.8079C52.559 35.2259 52.7753 35.8383 52.7753 36.6449V39.9999H51.9943V36.7219C51.9943 36.1206 51.844 35.6623 51.5433 35.3469C51.2426 35.0316 50.8136 34.8739 50.2563 34.8739C49.633 34.8739 49.138 35.0609 48.7713 35.4349C48.412 35.8016 48.2323 36.3113 48.2323 36.9639V39.9999H47.4513V34.2139H48.1993V35.2809C48.412 34.9289 48.7053 34.6576 49.0793 34.4669C49.4606 34.2689 49.9006 34.1699 50.3993 34.1699ZM60.1395 40.0549C59.5822 40.0549 59.0799 39.9303 58.6325 39.6809C58.1852 39.4243 57.8332 39.0723 57.5765 38.6249C57.3199 38.1776 57.1915 37.6716 57.1915 37.1069C57.1915 36.5423 57.3199 36.0363 57.5765 35.5889C57.8332 35.1416 58.1852 34.7933 58.6325 34.5439C59.0799 34.2946 59.5822 34.1699 60.1395 34.1699C60.6969 34.1699 61.1992 34.2946 61.6465 34.5439C62.0939 34.7933 62.4422 35.1416 62.6915 35.5889C62.9482 36.0363 63.0765 36.5423 63.0765 37.1069C63.0765 37.6716 62.9482 38.1776 62.6915 38.6249C62.4422 39.0723 62.0939 39.4243 61.6465 39.6809C61.1992 39.9303 60.6969 40.0549 60.1395 40.0549ZM60.1395 39.3619C60.5502 39.3619 60.9169 39.2703 61.2395 39.0869C61.5695 38.8963 61.8262 38.6286 62.0095 38.2839C62.1929 37.9393 62.2845 37.5469 62.2845 37.1069C62.2845 36.6669 62.1929 36.2746 62.0095 35.9299C61.8262 35.5853 61.5695 35.3213 61.2395 35.1379C60.9169 34.9473 60.5502 34.8519 60.1395 34.8519C59.7289 34.8519 59.3585 34.9473 59.0285 35.1379C58.7059 35.3213 58.4492 35.5853 58.2585 35.9299C58.0752 36.2746 57.9835 36.6669 57.9835 37.1069C57.9835 37.5469 58.0752 37.9393 58.2585 38.2839C58.4492 38.6286 58.7059 38.8963 59.0285 39.0869C59.3585 39.2703 59.7289 39.3619 60.1395 39.3619ZM66.585 32.4429C66.2477 32.4429 65.991 32.5346 65.815 32.7179C65.6464 32.9013 65.562 33.1726 65.562 33.5319V34.2139H67.344V34.8739H65.584V39.9999H64.803V34.8739H63.769V34.2139H64.803V33.4989C64.803 32.9709 64.9534 32.5529 65.254 32.2449C65.562 31.9369 65.9947 31.7829 66.552 31.7829C66.772 31.7829 66.9847 31.8159 67.19 31.8819C67.3954 31.9406 67.5677 32.0286 67.707 32.1459L67.443 32.7289C67.2157 32.5383 66.9297 32.4429 66.585 32.4429ZM70.3126 32.4429C69.9752 32.4429 69.7186 32.5346 69.5426 32.7179C69.3739 32.9013 69.2896 33.1726 69.2896 33.5319V34.2139H71.0716V34.8739H69.3116V39.9999H68.5306V34.8739H67.4966V34.2139H68.5306V33.4989C68.5306 32.9709 68.6809 32.5529 68.9816 32.2449C69.2896 31.9369 69.7222 31.7829 70.2796 31.7829C70.4996 31.7829 70.7122 31.8159 70.9176 31.8819C71.1229 31.9406 71.2952 32.0286 71.4346 32.1459L71.1706 32.7289C70.9432 32.5383 70.6572 32.4429 70.3126 32.4429ZM73.0076 34.2139H73.7886V39.9999H73.0076V34.2139ZM73.4036 32.9489C73.2422 32.9489 73.1066 32.8939 72.9966 32.7839C72.8866 32.6739 72.8316 32.5419 72.8316 32.3879C72.8316 32.2413 72.8866 32.1129 72.9966 32.0029C73.1066 31.8929 73.2422 31.8379 73.4036 31.8379C73.5649 31.8379 73.7006 31.8929 73.8106 32.0029C73.9206 32.1056 73.9756 32.2303 73.9756 32.3769C73.9756 32.5383 73.9206 32.6739 73.8106 32.7839C73.7006 32.8939 73.5649 32.9489 73.4036 32.9489ZM78.3698 40.0549C77.7978 40.0549 77.2845 39.9303 76.8298 39.6809C76.3825 39.4316 76.0305 39.0833 75.7738 38.6359C75.5171 38.1813 75.3888 37.6716 75.3888 37.1069C75.3888 36.5423 75.5171 36.0363 75.7738 35.5889C76.0305 35.1416 76.3825 34.7933 76.8298 34.5439C77.2845 34.2946 77.7978 34.1699 78.3698 34.1699C78.8685 34.1699 79.3121 34.2689 79.7008 34.4669C80.0968 34.6576 80.4085 34.9399 80.6358 35.3139L80.0528 35.7099C79.8621 35.4239 79.6201 35.2113 79.3268 35.0719C79.0335 34.9253 78.7145 34.8519 78.3698 34.8519C77.9518 34.8519 77.5741 34.9473 77.2368 35.1379C76.9068 35.3213 76.6465 35.5853 76.4558 35.9299C76.2725 36.2746 76.1808 36.6669 76.1808 37.1069C76.1808 37.5543 76.2725 37.9503 76.4558 38.2949C76.6465 38.6323 76.9068 38.8963 77.2368 39.0869C77.5741 39.2703 77.9518 39.3619 78.3698 39.3619C78.7145 39.3619 79.0335 39.2923 79.3268 39.1529C79.6201 39.0136 79.8621 38.8009 80.0528 38.5149L80.6358 38.9109C80.4085 39.2849 80.0968 39.5709 79.7008 39.7689C79.3048 39.9596 78.8611 40.0549 78.3698 40.0549ZM82.1701 34.2139H82.9511V39.9999H82.1701V34.2139ZM82.5661 32.9489C82.4047 32.9489 82.2691 32.8939 82.1591 32.7839C82.0491 32.6739 81.9941 32.5419 81.9941 32.3879C81.9941 32.2413 82.0491 32.1129 82.1591 32.0029C82.2691 31.8929 82.4047 31.8379 82.5661 31.8379C82.7274 31.8379 82.8631 31.8929 82.9731 32.0029C83.0831 32.1056 83.1381 32.2303 83.1381 32.3769C83.1381 32.5383 83.0831 32.6739 82.9731 32.7839C82.8631 32.8939 82.7274 32.9489 82.5661 32.9489ZM87.1482 34.1699C87.9035 34.1699 88.4828 34.3606 88.8862 34.7419C89.2895 35.1159 89.4912 35.6733 89.4912 36.4139V39.9999H88.7432V39.0979C88.5672 39.3986 88.3068 39.6333 87.9622 39.8019C87.6248 39.9706 87.2215 40.0549 86.7522 40.0549C86.1068 40.0549 85.5935 39.9009 85.2122 39.5929C84.8308 39.2849 84.6402 38.8779 84.6402 38.3719C84.6402 37.8806 84.8162 37.4846 85.1682 37.1839C85.5275 36.8833 86.0958 36.7329 86.8732 36.7329H88.7102V36.3809C88.7102 35.8823 88.5708 35.5046 88.2922 35.2479C88.0135 34.9839 87.6065 34.8519 87.0712 34.8519C86.7045 34.8519 86.3525 34.9143 86.0152 35.0389C85.6778 35.1563 85.3882 35.3213 85.1462 35.5339L84.7942 34.9509C85.0875 34.7016 85.4395 34.5109 85.8502 34.3789C86.2608 34.2396 86.6935 34.1699 87.1482 34.1699ZM86.8732 39.4389C87.3132 39.4389 87.6908 39.3399 88.0062 39.1419C88.3215 38.9366 88.5562 38.6433 88.7102 38.2619V37.3159H86.8952C85.9052 37.3159 85.4102 37.6606 85.4102 38.3499C85.4102 38.6873 85.5385 38.9549 85.7952 39.1529C86.0518 39.3436 86.4112 39.4389 86.8732 39.4389ZM91.6124 31.8379H92.3934V39.9999H91.6124V31.8379ZM105.937 34.2139L103.748 39.9999H103.011L101.185 35.2589L99.3594 39.9999H98.6224L96.4444 34.2139H97.1924L99.0074 39.1309L100.866 34.2139H101.537L103.385 39.1309L105.222 34.2139H105.937ZM111.99 37.3489H107.15C107.194 37.9503 107.425 38.4379 107.843 38.8119C108.261 39.1786 108.789 39.3619 109.427 39.3619C109.787 39.3619 110.117 39.2996 110.417 39.1749C110.718 39.0429 110.978 38.8523 111.198 38.6029L111.638 39.1089C111.382 39.4169 111.059 39.6516 110.67 39.8129C110.289 39.9743 109.867 40.0549 109.405 40.0549C108.811 40.0549 108.283 39.9303 107.821 39.6809C107.367 39.4243 107.011 39.0723 106.754 38.6249C106.498 38.1776 106.369 37.6716 106.369 37.1069C106.369 36.5423 106.49 36.0363 106.732 35.5889C106.982 35.1416 107.319 34.7933 107.744 34.5439C108.177 34.2946 108.661 34.1699 109.196 34.1699C109.732 34.1699 110.212 34.2946 110.637 34.5439C111.063 34.7933 111.396 35.1416 111.638 35.5889C111.88 36.0289 112.001 36.5349 112.001 37.1069L111.99 37.3489ZM109.196 34.8409C108.639 34.8409 108.17 35.0206 107.788 35.3799C107.414 35.7319 107.202 36.1939 107.15 36.7659H111.253C111.202 36.1939 110.986 35.7319 110.604 35.3799C110.23 35.0206 109.761 34.8409 109.196 34.8409ZM116.572 34.1699C117.115 34.1699 117.606 34.2946 118.046 34.5439C118.486 34.7859 118.831 35.1306 119.08 35.5779C119.329 36.0253 119.454 36.5349 119.454 37.1069C119.454 37.6789 119.329 38.1886 119.08 38.6359C118.831 39.0833 118.486 39.4316 118.046 39.6809C117.606 39.9303 117.115 40.0549 116.572 40.0549C116.088 40.0549 115.652 39.9523 115.263 39.7469C114.882 39.5416 114.574 39.2446 114.339 38.8559V39.9999H113.591V31.8379H114.372V35.3139C114.614 34.9399 114.922 34.6576 115.296 34.4669C115.677 34.2689 116.103 34.1699 116.572 34.1699ZM116.517 39.3619C116.92 39.3619 117.287 39.2703 117.617 39.0869C117.947 38.8963 118.204 38.6286 118.387 38.2839C118.578 37.9393 118.673 37.5469 118.673 37.1069C118.673 36.6669 118.578 36.2746 118.387 35.9299C118.204 35.5853 117.947 35.3213 117.617 35.1379C117.287 34.9473 116.92 34.8519 116.517 34.8519C116.106 34.8519 115.736 34.9473 115.406 35.1379C115.083 35.3213 114.827 35.5853 114.636 35.9299C114.453 36.2746 114.361 36.6669 114.361 37.1069C114.361 37.5469 114.453 37.9393 114.636 38.2839C114.827 38.6286 115.083 38.8963 115.406 39.0869C115.736 39.2703 116.106 39.3619 116.517 39.3619ZM122.597 40.0549C122.128 40.0549 121.677 39.9889 121.244 39.8569C120.819 39.7176 120.485 39.5453 120.243 39.3399L120.595 38.7239C120.837 38.9146 121.141 39.0723 121.508 39.1969C121.875 39.3143 122.256 39.3729 122.652 39.3729C123.18 39.3729 123.569 39.2923 123.818 39.1309C124.075 38.9623 124.203 38.7276 124.203 38.4269C124.203 38.2143 124.133 38.0493 123.994 37.9319C123.855 37.8073 123.679 37.7156 123.466 37.6569C123.253 37.5909 122.971 37.5286 122.619 37.4699C122.15 37.3819 121.772 37.2939 121.486 37.2059C121.2 37.1106 120.954 36.9529 120.749 36.7329C120.551 36.5129 120.452 36.2086 120.452 35.8199C120.452 35.3359 120.654 34.9399 121.057 34.6319C121.46 34.3239 122.021 34.1699 122.74 34.1699C123.114 34.1699 123.488 34.2213 123.862 34.3239C124.236 34.4193 124.544 34.5476 124.786 34.7089L124.445 35.3359C123.968 35.0059 123.4 34.8409 122.74 34.8409C122.241 34.8409 121.864 34.9289 121.607 35.1049C121.358 35.2809 121.233 35.5119 121.233 35.7979C121.233 36.0179 121.303 36.1939 121.442 36.3259C121.589 36.4579 121.768 36.5569 121.981 36.6229C122.194 36.6816 122.487 36.7439 122.861 36.8099C123.323 36.8979 123.693 36.9859 123.972 37.0739C124.251 37.1619 124.489 37.3123 124.687 37.5249C124.885 37.7376 124.984 38.0309 124.984 38.4049C124.984 38.9109 124.771 39.3143 124.346 39.6149C123.928 39.9083 123.345 40.0549 122.597 40.0549ZM126.428 34.2139H127.209V39.9999H126.428V34.2139ZM126.824 32.9489C126.663 32.9489 126.527 32.8939 126.417 32.7839C126.307 32.6739 126.252 32.5419 126.252 32.3879C126.252 32.2413 126.307 32.1129 126.417 32.0029C126.527 31.8929 126.663 31.8379 126.824 31.8379C126.985 31.8379 127.121 31.8929 127.231 32.0029C127.341 32.1056 127.396 32.2303 127.396 32.3769C127.396 32.5383 127.341 32.6739 127.231 32.7839C127.121 32.8939 126.985 32.9489 126.824 32.9489ZM132.429 39.6479C132.282 39.7799 132.099 39.8826 131.879 39.9559C131.666 40.0219 131.443 40.0549 131.208 40.0549C130.665 40.0549 130.247 39.9083 129.954 39.6149C129.661 39.3216 129.514 38.9073 129.514 38.3719V34.8739H128.48V34.2139H129.514V32.9489H130.295V34.2139H132.055V34.8739H130.295V38.3279C130.295 38.6726 130.379 38.9366 130.548 39.1199C130.724 39.2959 130.973 39.3839 131.296 39.3839C131.457 39.3839 131.611 39.3583 131.758 39.3069C131.912 39.2556 132.044 39.1823 132.154 39.0869L132.429 39.6479ZM138.685 37.3489H133.845C133.889 37.9503 134.12 38.4379 134.538 38.8119C134.956 39.1786 135.484 39.3619 136.122 39.3619C136.481 39.3619 136.811 39.2996 137.112 39.1749C137.412 39.0429 137.673 38.8523 137.893 38.6029L138.333 39.1089C138.076 39.4169 137.753 39.6516 137.365 39.8129C136.983 39.9743 136.562 40.0549 136.1 40.0549C135.506 40.0549 134.978 39.9303 134.516 39.6809C134.061 39.4243 133.705 39.0723 133.449 38.6249C133.192 38.1776 133.064 37.6716 133.064 37.1069C133.064 36.5423 133.185 36.0363 133.427 35.5889C133.676 35.1416 134.013 34.7933 134.439 34.5439C134.871 34.2946 135.355 34.1699 135.891 34.1699C136.426 34.1699 136.906 34.2946 137.332 34.5439C137.757 34.7933 138.091 35.1416 138.333 35.5889C138.575 36.0289 138.696 36.5349 138.696 37.1069L138.685 37.3489ZM135.891 34.8409C135.333 34.8409 134.864 35.0206 134.483 35.3799C134.109 35.7319 133.896 36.1939 133.845 36.7659H137.948C137.896 36.1939 137.68 35.7319 137.299 35.3799C136.925 35.0206 136.455 34.8409 135.891 34.8409Z" fill="#A7A9AC"/>
<defs>
<linearGradient id="paint0_linear" x1="57.9746" y1="0.277802" x2="57.9746" y2="22.6813" gradientUnits="userSpaceOnUse">
<stop stop-color="#1B262C"/>
<stop offset="1" stop-color="#1B2636"/>
</linearGradient>
<linearGradient id="paint1_linear" x1="91.231" y1="-3.05176e-05" x2="91.231" y2="22.6865" gradientUnits="userSpaceOnUse">
<stop stop-color="#1B262C"/>
<stop offset="1" stop-color="#1B2636"/>
</linearGradient>
<linearGradient id="paint2_linear" x1="171.481" y1="7.80249" x2="171.481" y2="22.6856" gradientUnits="userSpaceOnUse">
<stop stop-color="#1B262C"/>
<stop offset="1" stop-color="#1B2636"/>
</linearGradient>
<linearGradient id="paint3_linear" x1="171.641" y1="0.277802" x2="171.641" y2="4.50001" gradientUnits="userSpaceOnUse">
<stop stop-color="#1B262C"/>
<stop offset="1" stop-color="#1B2636"/>
</linearGradient>
<linearGradient id="paint4_linear" x1="130.76" y1="0.274323" x2="130.76" y2="22.6865" gradientUnits="userSpaceOnUse">
<stop stop-color="#1B262C"/>
<stop offset="1" stop-color="#1B2636"/>
</linearGradient>
<linearGradient id="paint5_linear" x1="16.4685" y1="0.275177" x2="16.4685" y2="22.6874" gradientUnits="userSpaceOnUse">
<stop stop-color="#1B262C"/>
<stop offset="1" stop-color="#1B2636"/>
</linearGradient>
<linearGradient id="paint6_linear" x1="228.225" y1="22.5018" x2="228.225" y2="13.3188" gradientUnits="userSpaceOnUse">
<stop stop-color="#1B262C"/>
<stop offset="1" stop-color="#1B2636"/>
</linearGradient>
<linearGradient id="paint7_linear" x1="207.441" y1="11.6808" x2="207.441" y2="1.0815e-05" gradientUnits="userSpaceOnUse">
<stop stop-color="#1B262C"/>
<stop offset="1" stop-color="#1B2636"/>
</linearGradient>
</defs>
</svg>
